<svg xmlns="http://www.w3.org/2000/svg" version="1.0" width="512.000000pt" height="512.000000pt" viewBox="0 0 512.000000 512.000000" preserveAspectRatio="xMidYMid meet">

<g transform="translate(0.000000,512.000000) scale(0.100000,-0.100000)" fill="#ffffff" stroke="none">
<path d="M1136 4425 c-29 -10 -91 -65 -229 -202 -103 -103 -194 -199 -201 -213 -23 -42 -28 -86 -16 -132 10 -39 77 -109 648 -680 l637 -638 -637 -637 c-571 -572 -638 -642 -648 -681 -12 -46 -7 -90 15 -132 7 -14 100 -111 207 -216 156 -155 201 -194 233 -203 49 -13 51 -13 100 0 34 9 131 101 678 647 l637 637 638 -637 c571 -571 641 -638 680 -648 49 -13 93 -6 137 20 17 10 114 103 216 207 150 151 189 196 198 228 13 49 13 51 0 100 -9 34 -101 131 -647 678 l-637 637 637 638 c571 571 638 641 648 680 13 49 6 93 -20 137 -10 17 -103 114 -207 216 -151 150 -196 189 -228 198 -49 13 -51 13 -100 0 -34 -9 -131 -101 -677 -647 l-638 -637 -637 637 c-547 546 -644 638 -678 647 -50 14 -61 13 -109 -4z" fill="#ffffff"/>
</g>
</svg>