<svg xmlns="http://www.w3.org/2000/svg" version="1.0" width="512.000000pt" height="512.000000pt" viewBox="0 0 512.000000 512.000000" preserveAspectRatio="xMidYMid meet">

<g transform="translate(0.000000,512.000000) scale(0.100000,-0.100000)" fill="#ffffff" stroke="none">
<path d="M1026 4264 c-34 -11 -65 -31 -102 -68 -91 -92 -84 44 -84 -1636 0 -1680 -7 -1544 84 -1636 92 -91 -44 -84 1636 -84 1680 0 1544 -7 1636 84 89 90 84 21 84 1113 0 1047 3 995 -60 1028 -37 19 -83 19 -120 0 -63 -33 -60 18 -60 -1018 0 -720 -3 -946 -12 -955 -17 -17 -2919 -17 -2936 0 -19 19 -17 2921 1 2937 10 8 288 11 965 13 l952 3 32 33 c28 28 33 39 33 82 0 43 -5 54 -33 82 l-32 33 -968 2 c-837 2 -974 0 -1016 -13z" fill="#ffffff"/>
<path d="M3643 4236 c-23 -7 -57 -23 -76 -35 -19 -12 -285 -275 -592 -586 l-557 -564 -145 -393 c-158 -430 -160 -436 -105 -490 53 -54 63 -52 457 92 198 73 380 140 405 151 66 28 1161 1136 1192 1206 29 65 29 152 -1 218 -31 69 -316 355 -384 385 -61 27 -140 34 -194 16z m231 -365 c119 -119 137 -141 128 -157 -6 -11 -253 -260 -549 -555 l-538 -537 -224 -81 c-123 -45 -225 -80 -228 -78 -2 3 33 105 78 228 l81 224 547 548 c300 301 551 547 556 547 6 0 73 -62 149 -139z" fill="#ffffff"/>
</g>
</svg>