<svg xmlns="http://www.w3.org/2000/svg" version="1.0" width="159.000000pt" height="318.000000pt" viewBox="0 0 159.000000 318.000000" preserveAspectRatio="xMidYMid meet">

<g transform="translate(0.000000,318.000000) scale(0.100000,-0.100000)" fill="#ffffff" stroke="none">
<path d="M751 3107 c-51 -16 -136 -100 -168 -165 -68 -138 -10 -307 129 -376 125 -62 267 -5 337 136 59 118 37 233 -63 333 -80 80 -146 100 -235 72z" fill="#ffffff"/>
<path d="M520 2474 c-71 -31 -97 -68 -140 -204 -234 -745 -252 -818 -211 -859 33 -33 83 -28 116 10 47 57 68 111 171 442 28 91 47 127 60 115 6 -7 -37 -163 -200 -723 -31 -107 -41 -152 -32 -157 6 -4 66 -8 134 -8 l122 0 0 -472 c0 -455 1 -474 20 -506 33 -55 106 -69 155 -30 54 42 55 49 55 535 0 405 5 492 24 472 4 -3 9 -210 12 -460 3 -250 7 -464 10 -476 2 -12 16 -35 30 -52 52 -62 139 -46 175 32 17 39 19 72 19 500 l0 457 128 0 c71 0 131 2 134 5 3 3 -3 38 -14 78 -74 280 -198 777 -198 795 0 12 5 22 10 22 6 0 10 -2 10 -4 0 -2 29 -104 65 -225 66 -223 102 -320 132 -353 24 -27 79 -23 110 8 24 24 25 30 21 107 -4 65 -22 140 -87 357 -158 529 -163 542 -230 587 -33 23 -40 23 -300 23 -215 -1 -273 -4 -301 -16z" fill="#ffffff"/>
</g>
</svg>